# xmcd
#
# Track frame offsets:
#	150
#	19658
#	41506
#	60106
#	77524
#	82994
#	95912
#	122631
#	138564
#	152425
#	172218
#	191244
#	212682
#	217885
#	228195
#	238205
#	244795
#	258874
#	279953
#	291422
#	295735
#
# Disc length: 4288 seconds
#
# Revision: 1
# Processed by: cddbd v1.5.2PL0 Copyright (c) Steve Scherf et al.
# Submitted via: audiograbber 1.83.01
#
DISCID=2610be15
DTITLE=Leadbelly - The Remaining Library Of Congress Recordings Vol. 2 1935
DYEAR=1997
DGENRE=Blues
TTITLE0=Ella Speed (54-B)
TTITLE1=Frankie And Albert (127-A)
TTITLE2=Frankie And Albert (127-B)
TTITLE3=Got A Gal In Town With Her Mouth Chuck Full Of Gold (130-B)
TTITLE4=Mary Don't You Weep (131-B-1)
TTITLE5=Way Over In The Promised Land (131-B-2)
TTITLE6=Death Letter Blues (132-A)
TTITLE7=Midnight Special (133-A)
TTITLE8=The Shreveport Jail (133-B)
TTITLE9=Western Cowboy (135-B)
TTITLE10=Blind Lemon Blues (136-B)
TTITLE11=Mr. Tom Hughes' Town (137-A)
TTITLE12=Mr. Tom Hughes' Town (137-B-1)
TTITLE13=You Cain' Loose-A-Me, Cholly (137-B-2)
TTITLE14=Green Corn (139-A-1)
TTITLE15=The Maid Freed From The Gallows (139-A-2)
TTITLE16=Po' Howard (139-B)
TTITLE17=Matchbox Blues (141-B)
TTITLE18=Gwine Dig A Hole To Put The Devil In (142-B-1)
TTITLE19=Old Man Settin' In The Corner Dyin' (142-B-2)
TTITLE20=Blues I Got Make A New-Born Baby (47-B)
EXTD=
EXTT0=
EXTT1=
EXTT2=
EXTT3=
EXTT4=
EXTT5=
EXTT6=
EXTT7=
EXTT8=
EXTT9=
EXTT10=
EXTT11=
EXTT12=
EXTT13=
EXTT14=
EXTT15=
EXTT16=
EXTT17=
EXTT18=
EXTT19=
EXTT20=
PLAYORDER=
